<svg
        width="26"
        height="20"
        viewBox="0 0 26 20"
        fill="none"
        xmlns="http://www.w3.org/2000/svg"
>
    <path
            d="M0.4 -7.7486e-07H6.8C9.85 -7.7486e-07 13.075 0.824999 13.075 5.4V5.9C13.075 7.675 12.3 8.775 11.175 9.425C12.575 10.1 13.575 11.3 13.575 13.4V13.9C13.575 18.65 10.15 19.5 7 19.5H0.4V-7.7486e-07ZM7.125 11.3H4.45V16H7.125C8.25 16 9.475 15.525 9.475 13.75V13.525C9.475 11.75 8.25 11.3 7.125 11.3ZM6.775 3.5H4.45V7.775H6.775C7.825 7.775 8.975 7.4 8.975 5.8V5.475C8.975 3.875 7.825 3.5 6.775 3.5ZM19.6715 15.325V19.5H15.5215V15.325H19.6715ZM25.9871 -7.7486e-07V19.5H21.9371V-7.7486e-07H25.9871Z"
            fill="#fff"
    />
</svg>